<svg width="161" height="72" viewBox="0 0 161 72" fill="none" xmlns="http://www.w3.org/2000/svg">
<rect y="8" width="148" height="64" fill="black"/>
<path d="M31.32 35.56C31.5067 36.5733 31.8267 37.28 32.28 37.68C32.76 38.0533 33.56 38.3067 34.68 38.44L34.76 38.56L34.32 40.12C34.0267 40.12 33.4667 40.0933 32.64 40.04C31.84 40.0133 31.0533 40 30.28 40C29.0533 40 27.8667 40.0533 26.72 40.16C25.6 40.2667 24.88 40.3467 24.56 40.4L24.48 40.12L24.8 38.68C25.8133 38.6 26.5733 38.4933 27.08 38.36C27.6133 38.2267 27.9733 38.04 28.16 37.8C28.3733 37.5333 28.48 37.16 28.48 36.68C28.48 36.36 28.4267 35.8533 28.32 35.16L27.6 30.64C26.96 30.6133 25.6267 30.6 23.6 30.6C22.4533 30.6 21.0267 30.7067 19.32 30.92L17.36 35.24C16.9867 36.0133 16.8 36.6267 16.8 37.08C16.8 37.5867 16.96 37.96 17.28 38.2C17.6267 38.4133 18.1733 38.52 18.92 38.52H21.16V38.64L20.76 40.28C20.44 40.2533 19.7467 40.2 18.68 40.12C17.6133 40.04 16.5467 40 15.48 40C14.5467 40 13.68 40.0133 12.88 40.04C12.08 40.0667 11.5467 40.0933 11.28 40.12L11.8 38.32C12.5733 38.24 13.2 37.9867 13.68 37.56C14.1867 37.1067 14.7067 36.32 15.24 35.2L25.16 14.76L27.4 14.08H27.72C27.72 14.2667 28.12 16.9333 28.92 22.08C29.7467 27.2267 30.5467 31.72 31.32 35.56ZM23.64 29.16C24.8933 29.16 26.1067 29.08 27.28 28.92L25.52 18.24H25.24L20.24 29.16H23.64ZM39.2853 37.6C39.472 37.6 39.752 37.4667 40.1253 37.2C40.5253 36.9067 41.2986 36.2533 42.4453 35.24L42.9253 35.28L43.4453 36.24C40.6186 39.0667 38.752 40.48 37.8453 40.48C37.0186 40.48 36.6053 40.0933 36.6053 39.32C36.6053 39.2133 36.752 38.2 37.0453 36.28C37.3386 34.36 37.6186 32.52 37.8853 30.76C39.5386 20.4933 40.3653 14.92 40.3653 14.04C40.3653 13.48 40.232 13.08 39.9653 12.84C39.6986 12.5733 39.272 12.44 38.6853 12.44H37.0453L37.2853 10.92C38.2986 10.92 39.512 10.8933 40.9253 10.84C42.3386 10.76 43.272 10.7067 43.7253 10.68L44.0853 11.16C43.8986 11.9867 43.4986 13.8667 42.8853 16.8C42.272 19.7067 41.592 23.1067 40.8453 27C40.1253 30.8933 39.5653 34.3733 39.1653 37.44L39.2853 37.6ZM58.1653 37.6C58.352 37.6 58.6186 37.4667 58.9653 37.2C59.312 36.9333 60.0986 36.28 61.3253 35.24L61.8053 35.28L62.3253 36.24C59.472 39.0667 57.6053 40.48 56.7253 40.48C55.8986 40.48 55.4853 40.0933 55.4853 39.32C55.4853 38.7867 55.592 38.0933 55.8053 37.24C56.0453 36.36 56.4186 35.08 56.9253 33.4C57.4586 31.72 57.8586 30.36 58.1253 29.32C58.392 28.28 58.5253 27.44 58.5253 26.8C58.5253 26.32 58.392 25.9333 58.1253 25.64C57.8853 25.32 57.5653 25.16 57.1653 25.16C56.3386 25.16 55.232 26.1733 53.8453 28.2C52.4853 30.2 51.112 32.8267 49.7253 36.08L49.2853 39.44C49.2586 39.5733 48.912 39.76 48.2453 40C47.6053 40.24 47.1253 40.36 46.8053 40.36L46.5253 40C46.9253 37.44 47.6586 32.64 48.7253 25.6C49.8186 18.5333 50.3653 14.6667 50.3653 14C50.3653 13.4667 50.232 13.08 49.9653 12.84C49.6986 12.5733 49.272 12.44 48.6853 12.44H47.0453L47.2853 10.92C48.2986 10.92 49.512 10.8933 50.9253 10.84C52.3386 10.76 53.272 10.7067 53.7253 10.68L54.0853 11.16C53.952 11.72 53.6453 13.04 53.1653 15.12C52.712 17.2 52.1786 19.7867 51.5653 22.88C50.9786 25.9467 50.472 28.96 50.0453 31.92L50.2453 32.04C51.632 29.3467 53.0186 27.0933 54.4053 25.28C55.8186 23.44 57.1386 22.16 58.3653 21.44C59.2186 21.44 59.952 21.8267 60.5653 22.6C61.2053 23.3467 61.5253 24.2533 61.5253 25.32C61.5253 26.04 61.3653 26.96 61.0453 28.08C60.7253 29.2 60.2453 30.6533 59.6053 32.44C58.7253 34.92 58.2053 36.5867 58.0453 37.44L58.1653 37.6ZM69.3747 37.6C69.5614 37.6 69.8414 37.4667 70.2147 37.2C70.6147 36.9067 71.388 36.2533 72.5347 35.24L73.0147 35.28L73.5347 36.24C70.708 39.0667 68.8414 40.48 67.9347 40.48C67.508 40.48 67.2014 40.36 67.0147 40.12C66.828 39.9067 66.7347 39.56 66.7347 39.08C67.3214 35.6133 67.8014 32.5733 68.1747 29.96C68.5747 27.32 68.7747 25.7867 68.7747 25.36C68.7747 24.7467 68.6414 24.32 68.3747 24.08C68.1347 23.8133 67.708 23.68 67.0947 23.68H65.4547L65.7347 22.16C67.548 22.16 69.708 22.08 72.2147 21.92L72.5747 22.4C71.908 24.56 71.2547 27.0667 70.6147 29.92C70.0014 32.7733 69.548 35.28 69.2547 37.44L69.3747 37.6ZM70.8547 16.88C70.3214 16.88 69.908 16.7067 69.6147 16.36C69.3214 16.0133 69.1747 15.5867 69.1747 15.08C69.1747 14.3867 69.428 13.7867 69.9347 13.28C70.4414 12.7467 71.0547 12.48 71.7747 12.48C72.3347 12.48 72.7614 12.6533 73.0547 13C73.348 13.3467 73.4947 13.7733 73.4947 14.28C73.4947 14.9733 73.228 15.5867 72.6947 16.12C72.188 16.6267 71.5747 16.88 70.8547 16.88ZM87.9616 37.6C88.1482 37.6 88.3882 37.4933 88.6816 37.28C89.0016 37.04 89.8149 36.36 91.1216 35.24L91.6016 35.28L92.1216 36.24C90.4416 37.8133 89.1882 38.92 88.3616 39.56C87.5616 40.1733 86.9482 40.48 86.5216 40.48C85.5616 40.48 85.0816 40.0933 85.0816 39.32C85.0816 38.9733 85.3216 37.7067 85.8016 35.52C86.2816 33.3067 86.6149 31.8 86.8016 31L86.5216 30.92C85.2149 33.32 83.9616 35.2933 82.7616 36.84C81.5616 38.3867 80.3349 39.6 79.0816 40.48C78.0682 40.48 77.2816 40.0133 76.7216 39.08C76.1616 38.12 75.8816 36.7733 75.8816 35.04C75.8816 32.9067 76.3349 30.8 77.2416 28.72C78.1482 26.6133 79.3082 24.9067 80.7216 23.6C82.1349 22.2667 83.5749 21.6 85.0416 21.6L87.9216 22.08L88.9616 14.2L89.0016 13.76C89.0016 13.3067 88.8682 12.9733 88.6016 12.76C88.3349 12.5467 87.9082 12.44 87.3216 12.44H85.6816L85.9216 10.92C86.9349 10.92 88.1482 10.8933 89.5616 10.84C90.9749 10.76 91.9082 10.7067 92.3616 10.68L92.7216 11.16C92.5349 12.04 92.1216 14.0267 91.4816 17.12C90.8682 20.1867 90.1882 23.6667 89.4416 27.56C88.7216 31.4533 88.1882 34.7467 87.8416 37.44L87.9616 37.6ZM79.8416 37.24C80.5882 37.24 81.7216 36.0667 83.2416 33.72C84.7616 31.3467 86.2549 28.4533 87.7216 25.04C87.0816 24.6667 86.4016 24.36 85.6816 24.12C84.9616 23.88 84.3349 23.76 83.8016 23.76C82.9482 23.76 82.1216 24.2133 81.3216 25.12C80.5482 26 79.9082 27.16 79.4016 28.6C78.9216 30.04 78.6816 31.5333 78.6816 33.08C78.6816 34.2267 78.7882 35.2133 79.0016 36.04C79.2416 36.84 79.5216 37.24 79.8416 37.24ZM106.477 37.6C106.664 37.6 106.931 37.48 107.277 37.24C107.624 36.9733 108.411 36.3067 109.637 35.24L110.117 35.28L110.637 36.24C108.851 37.92 107.571 39.0533 106.797 39.64C106.024 40.2 105.384 40.48 104.877 40.48C104.504 40.48 104.197 40.3733 103.957 40.16C103.717 39.9733 103.597 39.72 103.597 39.4C103.597 38.8133 104.171 36.0133 105.317 31L105.077 30.92C103.771 33.32 102.517 35.2933 101.317 36.84C100.117 38.36 98.8772 39.5733 97.5972 40.48C96.5839 40.48 95.7972 40.0133 95.2372 39.08C94.6772 38.12 94.3972 36.8 94.3972 35.12C94.3972 32.96 94.8372 30.8267 95.7172 28.72C96.6239 26.6133 97.7839 24.9067 99.1972 23.6C100.637 22.2667 102.091 21.6 103.557 21.6L107.557 22.24L107.917 21.24L108.117 21.2L109.357 21.8L109.677 22.28C109.037 24.4133 108.397 26.92 107.757 29.8C107.144 32.6533 106.677 35.2 106.357 37.44L106.477 37.6ZM98.4372 37.24C98.8905 37.24 99.5572 36.68 100.437 35.56C101.344 34.44 102.317 32.9467 103.357 31.08C104.424 29.2133 105.424 27.2133 106.357 25.08C105.744 24.7067 105.064 24.4 104.317 24.16C103.571 23.8933 102.944 23.76 102.437 23.76C101.531 23.76 100.677 24.2 99.8772 25.08C99.0772 25.96 98.4239 27.1333 97.9172 28.6C97.4372 30.04 97.1972 31.56 97.1972 33.16C97.1972 34.3333 97.3172 35.3067 97.5572 36.08C97.7972 36.8533 98.0905 37.24 98.4372 37.24ZM124.915 37.6C125.101 37.6 125.341 37.4933 125.635 37.28C125.955 37.04 126.768 36.36 128.075 35.24L128.555 35.28L129.075 36.24C127.395 37.8133 126.141 38.92 125.315 39.56C124.515 40.1733 123.901 40.48 123.475 40.48C122.515 40.48 122.035 40.0933 122.035 39.32C122.035 38.9733 122.275 37.7067 122.755 35.52C123.235 33.3067 123.568 31.8 123.755 31L123.475 30.92C122.168 33.32 120.915 35.2933 119.715 36.84C118.515 38.3867 117.288 39.6 116.035 40.48C115.021 40.48 114.235 40.0133 113.675 39.08C113.115 38.12 112.835 36.7733 112.835 35.04C112.835 32.9067 113.288 30.8 114.195 28.72C115.101 26.6133 116.261 24.9067 117.675 23.6C119.088 22.2667 120.528 21.6 121.995 21.6L124.875 22.08L125.915 14.2L125.955 13.76C125.955 13.3067 125.821 12.9733 125.555 12.76C125.288 12.5467 124.861 12.44 124.275 12.44H122.635L122.875 10.92C123.888 10.92 125.101 10.8933 126.515 10.84C127.928 10.76 128.861 10.7067 129.315 10.68L129.675 11.16C129.488 12.04 129.075 14.0267 128.435 17.12C127.821 20.1867 127.141 23.6667 126.395 27.56C125.675 31.4533 125.141 34.7467 124.795 37.44L124.915 37.6ZM116.795 37.24C117.541 37.24 118.675 36.0667 120.195 33.72C121.715 31.3467 123.208 28.4533 124.675 25.04C124.035 24.6667 123.355 24.36 122.635 24.12C121.915 23.88 121.288 23.76 120.755 23.76C119.901 23.76 119.075 24.2133 118.275 25.12C117.501 26 116.861 27.16 116.355 28.6C115.875 30.04 115.635 31.5333 115.635 33.08C115.635 34.2267 115.741 35.2133 115.955 36.04C116.195 36.84 116.475 37.24 116.795 37.24ZM23.584 62.92C23.668 62.92 23.788 62.866 23.944 62.758C24.1 62.638 24.46 62.338 25.024 61.858L25.24 61.876L25.474 62.308C24.154 63.58 23.302 64.216 22.918 64.216C22.546 64.216 22.36 64.042 22.36 63.694C22.36 63.466 22.414 63.148 22.522 62.74C22.642 62.32 22.822 61.75 23.062 61.03C23.326 60.238 23.518 59.614 23.638 59.158C23.77 58.702 23.836 58.336 23.836 58.06C23.836 57.844 23.776 57.67 23.656 57.538C23.548 57.394 23.404 57.322 23.224 57.322C22.84 57.322 22.318 57.808 21.658 58.78C21.01 59.752 20.356 61.018 19.696 62.578L19.48 63.748C19.468 63.808 19.312 63.892 19.012 64C18.724 64.108 18.508 64.162 18.364 64.162L18.238 64C18.37 63.448 18.604 62.392 18.94 60.832C19.276 59.26 19.444 58.336 19.444 58.06C19.444 57.844 19.384 57.67 19.264 57.538C19.156 57.394 19.012 57.322 18.832 57.322C18.472 57.322 17.992 57.778 17.392 58.69C16.792 59.59 16.192 60.766 15.592 62.218L15.394 63.748C15.382 63.808 15.226 63.892 14.926 64C14.638 64.108 14.422 64.162 14.278 64.162L14.152 64C14.26 63.364 14.452 62.164 14.728 60.4C15.004 58.624 15.142 57.616 15.142 57.376C15.142 57.124 15.082 56.944 14.962 56.836C14.842 56.716 14.644 56.656 14.368 56.656H13.63L13.756 55.972C14.212 55.972 14.758 55.96 15.394 55.936C16.042 55.9 16.468 55.876 16.672 55.864L16.834 56.08C16.798 56.188 16.714 56.458 16.582 56.89C16.45 57.31 16.3 57.838 16.132 58.474C15.964 59.11 15.832 59.74 15.736 60.364L15.79 60.418C16.402 59.194 17.014 58.174 17.626 57.358C18.238 56.542 18.82 55.972 19.372 55.648C19.756 55.648 20.08 55.816 20.344 56.152C20.62 56.476 20.758 56.866 20.758 57.322C20.758 57.574 20.656 58.078 20.452 58.834C20.248 59.59 20.104 60.1 20.02 60.364L20.074 60.418C20.662 59.254 21.28 58.258 21.928 57.43C22.588 56.59 23.212 55.996 23.8 55.648C24.184 55.648 24.502 55.81 24.754 56.134C25.006 56.446 25.132 56.842 25.132 57.322C25.132 57.67 25.054 58.108 24.898 58.636C24.742 59.164 24.514 59.848 24.214 60.688C23.842 61.768 23.614 62.488 23.53 62.848L23.584 62.92ZM28.8819 64.216C28.2819 64.216 27.7959 63.946 27.4239 63.406C27.0519 62.866 26.8659 62.152 26.8659 61.264C26.8659 60.292 27.0519 59.374 27.4239 58.51C27.8079 57.646 28.3119 56.956 28.9359 56.44C29.5719 55.912 30.2439 55.648 30.9519 55.648C31.5879 55.648 32.0859 55.888 32.4459 56.368C32.8179 56.836 33.0039 57.49 33.0039 58.33C33.0039 59.374 32.8179 60.346 32.4459 61.246C32.0739 62.146 31.5699 62.866 30.9339 63.406C30.2979 63.946 29.6139 64.216 28.8819 64.216ZM29.6019 63.226C29.9979 63.226 30.3519 63.058 30.6639 62.722C30.9759 62.386 31.2159 61.924 31.3839 61.336C31.5639 60.736 31.6539 60.064 31.6539 59.32C31.6539 58.516 31.5219 57.886 31.2579 57.43C31.0059 56.962 30.6519 56.728 30.1959 56.728C29.8119 56.728 29.4639 56.89 29.1519 57.214C28.8399 57.526 28.5939 57.958 28.4139 58.51C28.2459 59.062 28.1619 59.68 28.1619 60.364C28.1619 61.204 28.2939 61.894 28.5579 62.434C28.8339 62.962 29.1819 63.226 29.6019 63.226ZM39.5784 62.92C39.6624 62.92 39.7704 62.872 39.9024 62.776C40.0464 62.668 40.4124 62.362 41.0004 61.858L41.2164 61.876L41.4504 62.308C40.6944 63.016 40.1304 63.514 39.7584 63.802C39.3984 64.078 39.1224 64.216 38.9304 64.216C38.4984 64.216 38.2824 64.042 38.2824 63.694C38.2824 63.538 38.3904 62.968 38.6064 61.984C38.8224 60.988 38.9724 60.31 39.0564 59.95L38.9304 59.914C38.3424 60.994 37.7784 61.882 37.2384 62.578C36.6984 63.274 36.1464 63.82 35.5824 64.216C35.1264 64.216 34.7724 64.006 34.5204 63.586C34.2684 63.154 34.1424 62.548 34.1424 61.768C34.1424 60.808 34.3464 59.86 34.7544 58.924C35.1624 57.976 35.6844 57.208 36.3204 56.62C36.9564 56.02 37.6044 55.72 38.2644 55.72L39.5604 55.936L40.0284 52.39L40.0464 52.192C40.0464 51.988 39.9864 51.838 39.8664 51.742C39.7464 51.646 39.5544 51.598 39.2904 51.598H38.5524L38.6604 50.914C39.1164 50.914 39.6624 50.902 40.2984 50.878C40.9344 50.842 41.3544 50.818 41.5584 50.806L41.7204 51.022C41.6364 51.418 41.4504 52.312 41.1624 53.704C40.8864 55.084 40.5804 56.65 40.2444 58.402C39.9204 60.154 39.6804 61.636 39.5244 62.848L39.5784 62.92ZM35.9244 62.758C36.2604 62.758 36.7704 62.23 37.4544 61.174C38.1384 60.106 38.8104 58.804 39.4704 57.268C39.1824 57.1 38.8764 56.962 38.5524 56.854C38.2284 56.746 37.9464 56.692 37.7064 56.692C37.3224 56.692 36.9504 56.896 36.5904 57.304C36.2424 57.7 35.9544 58.222 35.7264 58.87C35.5104 59.518 35.4024 60.19 35.4024 60.886C35.4024 61.402 35.4504 61.846 35.5464 62.218C35.6544 62.578 35.7804 62.758 35.9244 62.758ZM48.0184 57.052C48.0184 57.808 47.6884 58.456 47.0284 58.996C46.3684 59.536 45.2704 60.064 43.7344 60.58C43.6864 61.348 43.7764 61.966 44.0044 62.434C44.2444 62.902 44.5744 63.136 44.9944 63.136C45.3544 63.136 45.7144 62.998 46.0744 62.722C46.4344 62.434 46.7344 62.056 46.9744 61.588L47.2264 61.606L47.4964 62.038C47.1484 62.674 46.7044 63.196 46.1644 63.604C45.6364 64.012 45.1144 64.216 44.5984 64.216C43.9504 64.216 43.4404 63.952 43.0684 63.424C42.6964 62.896 42.5104 62.17 42.5104 61.246C42.5104 60.346 42.7084 59.464 43.1044 58.6C43.5124 57.724 44.0284 57.016 44.6524 56.476C45.2884 55.924 45.9364 55.648 46.5964 55.648C47.0524 55.648 47.4004 55.774 47.6404 56.026C47.8924 56.266 48.0184 56.608 48.0184 57.052ZM46.0204 56.692C45.7084 56.692 45.3964 56.836 45.0844 57.124C44.7844 57.4 44.5144 57.778 44.2744 58.258C44.0464 58.738 43.8904 59.26 43.8064 59.824C44.8504 59.5 45.6004 59.158 46.0564 58.798C46.5124 58.438 46.7404 58.012 46.7404 57.52C46.7404 56.968 46.5004 56.692 46.0204 56.692ZM49.5192 64C49.6272 63.388 49.8192 62.218 50.0952 60.49C50.3712 58.762 50.5092 57.748 50.5092 57.448C50.5092 57.16 50.4492 56.956 50.3292 56.836C50.2212 56.716 50.0232 56.656 49.7352 56.656H48.9972L49.1232 55.972C49.5792 55.972 50.1252 55.96 50.7612 55.936C51.4092 55.9 51.8352 55.876 52.0392 55.864L52.2012 56.08C52.1652 56.176 52.0932 56.398 51.9852 56.746C51.8892 57.094 51.7632 57.562 51.6072 58.15C51.4512 58.726 51.3252 59.278 51.2292 59.806L51.3012 59.824C51.8172 58.66 52.3932 57.7 53.0292 56.944C53.6652 56.176 54.2232 55.768 54.7032 55.72C54.8112 55.792 54.9012 55.936 54.9732 56.152C55.0572 56.356 55.0992 56.572 55.0992 56.8C55.0992 57.004 55.0812 57.172 55.0452 57.304C55.0212 57.436 54.9912 57.532 54.9552 57.592C54.9192 57.64 54.8952 57.67 54.8832 57.682L54.7032 57.736C54.5832 57.616 54.4332 57.556 54.2532 57.556C53.7972 57.556 53.2752 57.934 52.6872 58.69C52.0992 59.434 51.5472 60.442 51.0312 61.714L50.7612 63.748C50.7492 63.808 50.5932 63.892 50.2932 64C50.0052 64.108 49.7892 64.162 49.6452 64.162L49.5192 64ZM62.8878 62.308C61.6158 63.58 60.7758 64.216 60.3678 64.216C59.9958 64.216 59.8098 64.042 59.8098 63.694C59.8098 63.454 59.8578 63.142 59.9538 62.758C60.0618 62.362 60.2298 61.786 60.4578 61.03C60.6978 60.274 60.8778 59.662 60.9978 59.194C61.1178 58.726 61.1778 58.348 61.1778 58.06C61.1778 57.844 61.1178 57.67 60.9978 57.538C60.8898 57.394 60.7458 57.322 60.5658 57.322C60.1938 57.322 59.6958 57.778 59.0718 58.69C58.4598 59.602 57.8418 60.79 57.2178 62.254L57.0198 63.748C57.0078 63.808 56.8518 63.892 56.5518 64C56.2638 64.108 56.0478 64.162 55.9038 64.162L55.7778 64C56.0178 62.632 56.2398 61.24 56.4438 59.824C56.6598 58.396 56.7678 57.58 56.7678 57.376C56.7678 57.124 56.7078 56.944 56.5878 56.836C56.4678 56.716 56.2698 56.656 55.9938 56.656H55.2558L55.3818 55.972C56.2098 55.972 57.1818 55.936 58.2978 55.864L58.4598 56.08C58.2438 56.692 58.0338 57.4 57.8298 58.204C57.6258 59.008 57.4698 59.728 57.3618 60.364L57.4518 60.418C58.0758 59.206 58.6998 58.192 59.3238 57.376C59.9598 56.548 60.5538 55.972 61.1058 55.648C61.4898 55.648 61.8138 55.816 62.0778 56.152C62.3418 56.476 62.4738 56.884 62.4738 57.376C62.4738 57.7 62.4018 58.126 62.2578 58.654C62.1138 59.17 61.9038 59.83 61.6278 60.634C61.2678 61.714 61.0458 62.452 60.9618 62.848L61.0158 62.92C61.0998 62.92 61.2198 62.866 61.3758 62.758C61.5318 62.638 61.8858 62.338 62.4378 61.858L62.6538 61.876L62.8878 62.308ZM77.1445 62.92C77.2285 62.92 77.3485 62.866 77.5045 62.758C77.6605 62.638 78.0205 62.338 78.5845 61.858L78.8005 61.876L79.0345 62.308C77.7145 63.58 76.8625 64.216 76.4785 64.216C76.1065 64.216 75.9205 64.042 75.9205 63.694C75.9205 63.466 75.9745 63.148 76.0825 62.74C76.2025 62.32 76.3825 61.75 76.6225 61.03C76.8865 60.238 77.0785 59.614 77.1985 59.158C77.3305 58.702 77.3965 58.336 77.3965 58.06C77.3965 57.844 77.3365 57.67 77.2165 57.538C77.1085 57.394 76.9645 57.322 76.7845 57.322C76.4005 57.322 75.8785 57.808 75.2185 58.78C74.5705 59.752 73.9165 61.018 73.2565 62.578L73.0405 63.748C73.0285 63.808 72.8725 63.892 72.5725 64C72.2845 64.108 72.0685 64.162 71.9245 64.162L71.7985 64C71.9305 63.448 72.1645 62.392 72.5005 60.832C72.8365 59.26 73.0045 58.336 73.0045 58.06C73.0045 57.844 72.9445 57.67 72.8245 57.538C72.7165 57.394 72.5725 57.322 72.3925 57.322C72.0325 57.322 71.5525 57.778 70.9525 58.69C70.3525 59.59 69.7525 60.766 69.1525 62.218L68.9545 63.748C68.9425 63.808 68.7865 63.892 68.4865 64C68.1985 64.108 67.9825 64.162 67.8385 64.162L67.7125 64C67.8205 63.364 68.0125 62.164 68.2885 60.4C68.5645 58.624 68.7025 57.616 68.7025 57.376C68.7025 57.124 68.6425 56.944 68.5225 56.836C68.4025 56.716 68.2045 56.656 67.9285 56.656H67.1905L67.3165 55.972C67.7725 55.972 68.3185 55.96 68.9545 55.936C69.6025 55.9 70.0285 55.876 70.2325 55.864L70.3945 56.08C70.3585 56.188 70.2745 56.458 70.1425 56.89C70.0105 57.31 69.8605 57.838 69.6925 58.474C69.5245 59.11 69.3925 59.74 69.2965 60.364L69.3505 60.418C69.9625 59.194 70.5745 58.174 71.1865 57.358C71.7985 56.542 72.3805 55.972 72.9325 55.648C73.3165 55.648 73.6405 55.816 73.9045 56.152C74.1805 56.476 74.3185 56.866 74.3185 57.322C74.3185 57.574 74.2165 58.078 74.0125 58.834C73.8085 59.59 73.6645 60.1 73.5805 60.364L73.6345 60.418C74.2225 59.254 74.8405 58.258 75.4885 57.43C76.1485 56.59 76.7725 55.996 77.3605 55.648C77.7445 55.648 78.0625 55.81 78.3145 56.134C78.5665 56.446 78.6925 56.842 78.6925 57.322C78.6925 57.67 78.6145 58.108 78.4585 58.636C78.3025 59.164 78.0745 59.848 77.7745 60.688C77.4025 61.768 77.1745 62.488 77.0905 62.848L77.1445 62.92ZM85.9345 57.052C85.9345 57.808 85.6045 58.456 84.9445 58.996C84.2845 59.536 83.1865 60.064 81.6505 60.58C81.6025 61.348 81.6925 61.966 81.9205 62.434C82.1605 62.902 82.4905 63.136 82.9105 63.136C83.2705 63.136 83.6305 62.998 83.9905 62.722C84.3505 62.434 84.6505 62.056 84.8905 61.588L85.1425 61.606L85.4125 62.038C85.0645 62.674 84.6205 63.196 84.0805 63.604C83.5525 64.012 83.0305 64.216 82.5145 64.216C81.8665 64.216 81.3565 63.952 80.9845 63.424C80.6125 62.896 80.4265 62.17 80.4265 61.246C80.4265 60.346 80.6245 59.464 81.0205 58.6C81.4285 57.724 81.9445 57.016 82.5685 56.476C83.2045 55.924 83.8525 55.648 84.5125 55.648C84.9685 55.648 85.3165 55.774 85.5565 56.026C85.8085 56.266 85.9345 56.608 85.9345 57.052ZM83.9365 56.692C83.6245 56.692 83.3125 56.836 83.0005 57.124C82.7005 57.4 82.4305 57.778 82.1905 58.258C81.9625 58.738 81.8065 59.26 81.7225 59.824C82.7665 59.5 83.5165 59.158 83.9725 58.798C84.4285 58.438 84.6565 58.012 84.6565 57.52C84.6565 56.968 84.4165 56.692 83.9365 56.692ZM91.0892 62.128C90.5372 62.74 90.0152 63.244 89.5232 63.64C89.0312 64.024 88.6472 64.216 88.3712 64.216C88.0472 64.216 87.7892 64.126 87.5972 63.946C87.4052 63.766 87.3092 63.52 87.3092 63.208L87.3272 63.01L88.3172 56.836L88.2272 56.764L86.9852 56.71L86.9312 56.62L87.0032 56.098L88.4432 55.864L88.7312 53.704L90.3512 53.074L90.4592 53.29C90.4112 53.434 90.3092 53.764 90.1532 54.28C90.0092 54.784 89.8712 55.33 89.7392 55.918L91.9352 55.9L92.0072 55.954L91.8632 56.674L89.7392 56.656L89.5412 56.764L88.4432 62.29L88.4252 62.452C88.4252 62.764 88.5692 62.92 88.8572 62.92C89.0252 62.92 89.2412 62.83 89.5052 62.65C89.7812 62.458 90.1592 62.134 90.6392 61.678L90.8732 61.696L91.0892 62.128ZM97.2522 62.92C97.3362 62.92 97.4562 62.866 97.6122 62.758C97.7682 62.638 98.1222 62.338 98.6742 61.858L98.8902 61.876L99.1242 62.308C98.3202 63.064 97.7442 63.574 97.3962 63.838C97.0482 64.09 96.7602 64.216 96.5322 64.216C96.3642 64.216 96.2262 64.168 96.1182 64.072C96.0102 63.988 95.9562 63.874 95.9562 63.73C95.9562 63.466 96.2142 62.206 96.7302 59.95L96.6222 59.914C96.0342 60.994 95.4702 61.882 94.9302 62.578C94.3902 63.262 93.8322 63.808 93.2562 64.216C92.8002 64.216 92.4462 64.006 92.1942 63.586C91.9422 63.154 91.8162 62.56 91.8162 61.804C91.8162 60.832 92.0142 59.872 92.4102 58.924C92.8182 57.976 93.3402 57.208 93.9762 56.62C94.6242 56.02 95.2782 55.72 95.9382 55.72L97.7382 56.008L97.9002 55.558L97.9902 55.54L98.5482 55.81L98.6922 56.026C98.4042 56.986 98.1162 58.114 97.8282 59.41C97.5522 60.694 97.3422 61.84 97.1982 62.848L97.2522 62.92ZM93.6342 62.758C93.8382 62.758 94.1382 62.506 94.5342 62.002C94.9422 61.498 95.3802 60.826 95.8482 59.986C96.3282 59.146 96.7782 58.246 97.1982 57.286C96.9222 57.118 96.6162 56.98 96.2802 56.872C95.9442 56.752 95.6622 56.692 95.4342 56.692C95.0262 56.692 94.6422 56.89 94.2822 57.286C93.9222 57.682 93.6282 58.21 93.4002 58.87C93.1842 59.518 93.0762 60.202 93.0762 60.922C93.0762 61.45 93.1302 61.888 93.2382 62.236C93.3462 62.584 93.4782 62.758 93.6342 62.758ZM101.715 62.92C101.799 62.92 101.925 62.86 102.093 62.74C102.273 62.608 102.621 62.314 103.137 61.858L103.353 61.876L103.587 62.308C102.315 63.58 101.475 64.216 101.067 64.216C100.695 64.216 100.509 64.042 100.509 63.694C100.509 63.646 100.575 63.19 100.707 62.326C100.839 61.462 100.965 60.634 101.085 59.842C101.829 55.222 102.201 52.714 102.201 52.318C102.201 52.066 102.141 51.886 102.021 51.778C101.901 51.658 101.709 51.598 101.445 51.598H100.707L100.815 50.914C101.271 50.914 101.817 50.902 102.453 50.878C103.089 50.842 103.509 50.818 103.713 50.806L103.875 51.022C103.791 51.394 103.611 52.24 103.335 53.56C103.059 54.868 102.753 56.398 102.417 58.15C102.093 59.902 101.841 61.468 101.661 62.848L101.715 62.92ZM113.09 62.92C113.174 62.92 113.294 62.866 113.45 62.758C113.606 62.638 113.96 62.338 114.512 61.858L114.728 61.876L114.962 62.308C114.158 63.064 113.582 63.574 113.234 63.838C112.886 64.09 112.598 64.216 112.37 64.216C112.202 64.216 112.064 64.168 111.956 64.072C111.848 63.988 111.794 63.874 111.794 63.73C111.794 63.466 112.052 62.206 112.568 59.95L112.46 59.914C111.872 60.994 111.308 61.882 110.768 62.578C110.228 63.262 109.67 63.808 109.094 64.216C108.638 64.216 108.284 64.006 108.032 63.586C107.78 63.154 107.654 62.56 107.654 61.804C107.654 60.832 107.852 59.872 108.248 58.924C108.656 57.976 109.178 57.208 109.814 56.62C110.462 56.02 111.116 55.72 111.776 55.72L113.576 56.008L113.738 55.558L113.828 55.54L114.386 55.81L114.53 56.026C114.242 56.986 113.954 58.114 113.666 59.41C113.39 60.694 113.18 61.84 113.036 62.848L113.09 62.92ZM109.472 62.758C109.676 62.758 109.976 62.506 110.372 62.002C110.78 61.498 111.218 60.826 111.686 59.986C112.166 59.146 112.616 58.246 113.036 57.286C112.76 57.118 112.454 56.98 112.118 56.872C111.782 56.752 111.5 56.692 111.272 56.692C110.864 56.692 110.48 56.89 110.12 57.286C109.76 57.682 109.466 58.21 109.238 58.87C109.022 59.518 108.914 60.202 108.914 60.922C108.914 61.45 108.968 61.888 109.076 62.236C109.184 62.584 109.316 62.758 109.472 62.758ZM116.527 64C116.635 63.388 116.827 62.218 117.103 60.49C117.379 58.762 117.517 57.748 117.517 57.448C117.517 57.16 117.457 56.956 117.337 56.836C117.229 56.716 117.031 56.656 116.743 56.656H116.005L116.131 55.972C116.587 55.972 117.133 55.96 117.769 55.936C118.417 55.9 118.843 55.876 119.047 55.864L119.209 56.08C119.173 56.176 119.101 56.398 118.993 56.746C118.897 57.094 118.771 57.562 118.615 58.15C118.459 58.726 118.333 59.278 118.237 59.806L118.309 59.824C118.825 58.66 119.401 57.7 120.037 56.944C120.673 56.176 121.231 55.768 121.711 55.72C121.819 55.792 121.909 55.936 121.981 56.152C122.065 56.356 122.107 56.572 122.107 56.8C122.107 57.004 122.089 57.172 122.053 57.304C122.029 57.436 121.999 57.532 121.963 57.592C121.927 57.64 121.903 57.67 121.891 57.682L121.711 57.736C121.591 57.616 121.441 57.556 121.261 57.556C120.805 57.556 120.283 57.934 119.695 58.69C119.107 59.434 118.555 60.442 118.039 61.714L117.769 63.748C117.757 63.808 117.601 63.892 117.301 64C117.013 64.108 116.797 64.162 116.653 64.162L116.527 64ZM126.404 62.128C125.852 62.74 125.33 63.244 124.838 63.64C124.346 64.024 123.962 64.216 123.686 64.216C123.362 64.216 123.104 64.126 122.912 63.946C122.72 63.766 122.624 63.52 122.624 63.208L122.642 63.01L123.632 56.836L123.542 56.764L122.3 56.71L122.246 56.62L122.318 56.098L123.758 55.864L124.046 53.704L125.666 53.074L125.774 53.29C125.726 53.434 125.624 53.764 125.468 54.28C125.324 54.784 125.186 55.33 125.054 55.918L127.25 55.9L127.322 55.954L127.178 56.674L125.054 56.656L124.856 56.764L123.758 62.29L123.74 62.452C123.74 62.764 123.884 62.92 124.172 62.92C124.34 62.92 124.556 62.83 124.82 62.65C125.096 62.458 125.474 62.134 125.954 61.678L126.188 61.696L126.404 62.128Z" fill="white"/>
</svg>
