<svg width="119" height="55" viewBox="0 0 119 55" fill="none" xmlns="http://www.w3.org/2000/svg">
<path d="M20.32 25.56C20.5067 26.5733 20.8267 27.28 21.28 27.68C21.76 28.0533 22.56 28.3067 23.68 28.44L23.76 28.56L23.32 30.12C23.0267 30.12 22.4667 30.0933 21.64 30.04C20.84 30.0133 20.0533 30 19.28 30C18.0533 30 16.8667 30.0533 15.72 30.16C14.6 30.2667 13.88 30.3467 13.56 30.4L13.48 30.12L13.8 28.68C14.8133 28.6 15.5733 28.4933 16.08 28.36C16.6133 28.2267 16.9733 28.04 17.16 27.8C17.3733 27.5333 17.48 27.16 17.48 26.68C17.48 26.36 17.4267 25.8533 17.32 25.16L16.6 20.64C15.96 20.6133 14.6267 20.6 12.6 20.6C11.4533 20.6 10.0267 20.7067 8.32 20.92L6.36 25.24C5.98667 26.0133 5.8 26.6267 5.8 27.08C5.8 27.5867 5.96 27.96 6.28 28.2C6.62667 28.4133 7.17333 28.52 7.92 28.52H10.16V28.64L9.76 30.28C9.44 30.2533 8.74667 30.2 7.68 30.12C6.61333 30.04 5.54667 30 4.48 30C3.54667 30 2.68 30.0133 1.88 30.04C1.08 30.0667 0.546667 30.0933 0.28 30.12L0.8 28.32C1.57333 28.24 2.2 27.9867 2.68 27.56C3.18667 27.1067 3.70667 26.32 4.24 25.2L14.16 4.76L16.4 4.08H16.72C16.72 4.26667 17.12 6.93333 17.92 12.08C18.7467 17.2267 19.5467 21.72 20.32 25.56ZM12.64 19.16C13.8933 19.16 15.1067 19.08 16.28 18.92L14.52 8.24H14.24L9.24 19.16H12.64ZM28.2853 27.6C28.472 27.6 28.752 27.4667 29.1253 27.2C29.5253 26.9067 30.2986 26.2533 31.4453 25.24L31.9253 25.28L32.4453 26.24C29.6186 29.0667 27.752 30.48 26.8453 30.48C26.0186 30.48 25.6053 30.0933 25.6053 29.32C25.6053 29.2133 25.752 28.2 26.0453 26.28C26.3386 24.36 26.6186 22.52 26.8853 20.76C28.5386 10.4933 29.3653 4.92 29.3653 4.04C29.3653 3.48 29.232 3.08 28.9653 2.84C28.6986 2.57333 28.272 2.44 27.6853 2.44H26.0453L26.2853 0.919998C27.2986 0.919998 28.512 0.893331 29.9253 0.839999C31.3386 0.759998 32.272 0.706665 32.7253 0.679998L33.0853 1.16C32.8986 1.98666 32.4986 3.86666 31.8853 6.8C31.272 9.70667 30.592 13.1067 29.8453 17C29.1253 20.8933 28.5653 24.3733 28.1653 27.44L28.2853 27.6ZM47.1653 27.6C47.352 27.6 47.6186 27.4667 47.9653 27.2C48.312 26.9333 49.0986 26.28 50.3253 25.24L50.8053 25.28L51.3253 26.24C48.472 29.0667 46.6053 30.48 45.7253 30.48C44.8986 30.48 44.4853 30.0933 44.4853 29.32C44.4853 28.7867 44.592 28.0933 44.8053 27.24C45.0453 26.36 45.4186 25.08 45.9253 23.4C46.4586 21.72 46.8586 20.36 47.1253 19.32C47.392 18.28 47.5253 17.44 47.5253 16.8C47.5253 16.32 47.392 15.9333 47.1253 15.64C46.8853 15.32 46.5653 15.16 46.1653 15.16C45.3386 15.16 44.232 16.1733 42.8453 18.2C41.4853 20.2 40.112 22.8267 38.7253 26.08L38.2853 29.44C38.2586 29.5733 37.912 29.76 37.2453 30C36.6053 30.24 36.1253 30.36 35.8053 30.36L35.5253 30C35.9253 27.44 36.6586 22.64 37.7253 15.6C38.8186 8.53333 39.3653 4.66667 39.3653 4C39.3653 3.46667 39.232 3.08 38.9653 2.84C38.6986 2.57333 38.272 2.44 37.6853 2.44H36.0453L36.2853 0.919998C37.2986 0.919998 38.512 0.893331 39.9253 0.839999C41.3386 0.759998 42.272 0.706665 42.7253 0.679998L43.0853 1.16C42.952 1.72 42.6453 3.04 42.1653 5.12C41.712 7.2 41.1786 9.78667 40.5653 12.88C39.9786 15.9467 39.472 18.96 39.0453 21.92L39.2453 22.04C40.632 19.3467 42.0186 17.0933 43.4053 15.28C44.8186 13.44 46.1386 12.16 47.3653 11.44C48.2186 11.44 48.952 11.8267 49.5653 12.6C50.2053 13.3467 50.5253 14.2533 50.5253 15.32C50.5253 16.04 50.3653 16.96 50.0453 18.08C49.7253 19.2 49.2453 20.6533 48.6053 22.44C47.7253 24.92 47.2053 26.5867 47.0453 27.44L47.1653 27.6ZM58.3747 27.6C58.5614 27.6 58.8414 27.4667 59.2147 27.2C59.6147 26.9067 60.388 26.2533 61.5347 25.24L62.0147 25.28L62.5347 26.24C59.708 29.0667 57.8414 30.48 56.9347 30.48C56.508 30.48 56.2014 30.36 56.0147 30.12C55.828 29.9067 55.7347 29.56 55.7347 29.08C56.3214 25.6133 56.8014 22.5733 57.1747 19.96C57.5747 17.32 57.7747 15.7867 57.7747 15.36C57.7747 14.7467 57.6414 14.32 57.3747 14.08C57.1347 13.8133 56.708 13.68 56.0947 13.68H54.4547L54.7347 12.16C56.548 12.16 58.708 12.08 61.2147 11.92L61.5747 12.4C60.908 14.56 60.2547 17.0667 59.6147 19.92C59.0014 22.7733 58.548 25.28 58.2547 27.44L58.3747 27.6ZM59.8547 6.88C59.3214 6.88 58.908 6.70667 58.6147 6.36C58.3214 6.01333 58.1747 5.58667 58.1747 5.08C58.1747 4.38667 58.428 3.78666 58.9347 3.28C59.4414 2.74667 60.0547 2.48 60.7747 2.48C61.3347 2.48 61.7614 2.65333 62.0547 3C62.348 3.34666 62.4947 3.77333 62.4947 4.28C62.4947 4.97333 62.228 5.58667 61.6947 6.12C61.188 6.62667 60.5747 6.88 59.8547 6.88ZM76.9616 27.6C77.1482 27.6 77.3882 27.4933 77.6816 27.28C78.0016 27.04 78.8149 26.36 80.1216 25.24L80.6016 25.28L81.1216 26.24C79.4416 27.8133 78.1882 28.92 77.3616 29.56C76.5616 30.1733 75.9482 30.48 75.5216 30.48C74.5616 30.48 74.0816 30.0933 74.0816 29.32C74.0816 28.9733 74.3216 27.7067 74.8016 25.52C75.2816 23.3067 75.6149 21.8 75.8016 21L75.5216 20.92C74.2149 23.32 72.9616 25.2933 71.7616 26.84C70.5616 28.3867 69.3349 29.6 68.0816 30.48C67.0682 30.48 66.2816 30.0133 65.7216 29.08C65.1616 28.12 64.8816 26.7733 64.8816 25.04C64.8816 22.9067 65.3349 20.8 66.2416 18.72C67.1482 16.6133 68.3082 14.9067 69.7216 13.6C71.1349 12.2667 72.5749 11.6 74.0416 11.6L76.9216 12.08L77.9616 4.2L78.0016 3.76C78.0016 3.30667 77.8682 2.97333 77.6016 2.76C77.3349 2.54667 76.9082 2.44 76.3216 2.44H74.6816L74.9216 0.919998C75.9349 0.919998 77.1482 0.893331 78.5616 0.839999C79.9749 0.759998 80.9082 0.706665 81.3616 0.679998L81.7216 1.16C81.5349 2.04 81.1216 4.02667 80.4816 7.12C79.8682 10.1867 79.1882 13.6667 78.4416 17.56C77.7216 21.4533 77.1882 24.7467 76.8416 27.44L76.9616 27.6ZM68.8416 27.24C69.5882 27.24 70.7216 26.0667 72.2416 23.72C73.7616 21.3467 75.2549 18.4533 76.7216 15.04C76.0816 14.6667 75.4016 14.36 74.6816 14.12C73.9616 13.88 73.3349 13.76 72.8016 13.76C71.9482 13.76 71.1216 14.2133 70.3216 15.12C69.5482 16 68.9082 17.16 68.4016 18.6C67.9216 20.04 67.6816 21.5333 67.6816 23.08C67.6816 24.2267 67.7882 25.2133 68.0016 26.04C68.2416 26.84 68.5216 27.24 68.8416 27.24ZM95.4772 27.6C95.6639 27.6 95.9305 27.48 96.2772 27.24C96.6239 26.9733 97.4105 26.3067 98.6372 25.24L99.1172 25.28L99.6372 26.24C97.8505 27.92 96.5705 29.0533 95.7972 29.64C95.0239 30.2 94.3839 30.48 93.8772 30.48C93.5039 30.48 93.1972 30.3733 92.9572 30.16C92.7172 29.9733 92.5972 29.72 92.5972 29.4C92.5972 28.8133 93.1705 26.0133 94.3172 21L94.0772 20.92C92.7705 23.32 91.5172 25.2933 90.3172 26.84C89.1172 28.36 87.8772 29.5733 86.5972 30.48C85.5839 30.48 84.7972 30.0133 84.2372 29.08C83.6772 28.12 83.3972 26.8 83.3972 25.12C83.3972 22.96 83.8372 20.8267 84.7172 18.72C85.6239 16.6133 86.7839 14.9067 88.1972 13.6C89.6372 12.2667 91.0905 11.6 92.5572 11.6L96.5572 12.24L96.9172 11.24L97.1172 11.2L98.3572 11.8L98.6772 12.28C98.0372 14.4133 97.3972 16.92 96.7572 19.8C96.1439 22.6533 95.6772 25.2 95.3572 27.44L95.4772 27.6ZM87.4372 27.24C87.8905 27.24 88.5572 26.68 89.4372 25.56C90.3439 24.44 91.3172 22.9467 92.3572 21.08C93.4239 19.2133 94.4239 17.2133 95.3572 15.08C94.7439 14.7067 94.0639 14.4 93.3172 14.16C92.5705 13.8933 91.9439 13.76 91.4372 13.76C90.5305 13.76 89.6772 14.2 88.8772 15.08C88.0772 15.96 87.4239 17.1333 86.9172 18.6C86.4372 20.04 86.1972 21.56 86.1972 23.16C86.1972 24.3333 86.3172 25.3067 86.5572 26.08C86.7972 26.8533 87.0905 27.24 87.4372 27.24ZM113.915 27.6C114.101 27.6 114.341 27.4933 114.635 27.28C114.955 27.04 115.768 26.36 117.075 25.24L117.555 25.28L118.075 26.24C116.395 27.8133 115.141 28.92 114.315 29.56C113.515 30.1733 112.901 30.48 112.475 30.48C111.515 30.48 111.035 30.0933 111.035 29.32C111.035 28.9733 111.275 27.7067 111.755 25.52C112.235 23.3067 112.568 21.8 112.755 21L112.475 20.92C111.168 23.32 109.915 25.2933 108.715 26.84C107.515 28.3867 106.288 29.6 105.035 30.48C104.021 30.48 103.235 30.0133 102.675 29.08C102.115 28.12 101.835 26.7733 101.835 25.04C101.835 22.9067 102.288 20.8 103.195 18.72C104.101 16.6133 105.261 14.9067 106.675 13.6C108.088 12.2667 109.528 11.6 110.995 11.6L113.875 12.08L114.915 4.2L114.955 3.76C114.955 3.30667 114.821 2.97333 114.555 2.76C114.288 2.54667 113.861 2.44 113.275 2.44H111.635L111.875 0.919998C112.888 0.919998 114.101 0.893331 115.515 0.839999C116.928 0.759998 117.861 0.706665 118.315 0.679998L118.675 1.16C118.488 2.04 118.075 4.02667 117.435 7.12C116.821 10.1867 116.141 13.6667 115.395 17.56C114.675 21.4533 114.141 24.7467 113.795 27.44L113.915 27.6ZM105.795 27.24C106.541 27.24 107.675 26.0667 109.195 23.72C110.715 21.3467 112.208 18.4533 113.675 15.04C113.035 14.6667 112.355 14.36 111.635 14.12C110.915 13.88 110.288 13.76 109.755 13.76C108.901 13.76 108.075 14.2133 107.275 15.12C106.501 16 105.861 17.16 105.355 18.6C104.875 20.04 104.635 21.5333 104.635 23.08C104.635 24.2267 104.741 25.2133 104.955 26.04C105.195 26.84 105.475 27.24 105.795 27.24ZM12.584 52.92C12.668 52.92 12.788 52.866 12.944 52.758C13.1 52.638 13.46 52.338 14.024 51.858L14.24 51.876L14.474 52.308C13.154 53.58 12.302 54.216 11.918 54.216C11.546 54.216 11.36 54.042 11.36 53.694C11.36 53.466 11.414 53.148 11.522 52.74C11.642 52.32 11.822 51.75 12.062 51.03C12.326 50.238 12.518 49.614 12.638 49.158C12.77 48.702 12.836 48.336 12.836 48.06C12.836 47.844 12.776 47.67 12.656 47.538C12.548 47.394 12.404 47.322 12.224 47.322C11.84 47.322 11.318 47.808 10.658 48.78C10.01 49.752 9.356 51.018 8.696 52.578L8.48 53.748C8.468 53.808 8.312 53.892 8.012 54C7.724 54.108 7.508 54.162 7.364 54.162L7.238 54C7.37 53.448 7.604 52.392 7.94 50.832C8.276 49.26 8.444 48.336 8.444 48.06C8.444 47.844 8.384 47.67 8.264 47.538C8.156 47.394 8.012 47.322 7.832 47.322C7.472 47.322 6.992 47.778 6.392 48.69C5.792 49.59 5.192 50.766 4.592 52.218L4.394 53.748C4.382 53.808 4.226 53.892 3.926 54C3.638 54.108 3.422 54.162 3.278 54.162L3.152 54C3.26 53.364 3.452 52.164 3.728 50.4C4.004 48.624 4.142 47.616 4.142 47.376C4.142 47.124 4.082 46.944 3.962 46.836C3.842 46.716 3.644 46.656 3.368 46.656H2.63L2.756 45.972C3.212 45.972 3.758 45.96 4.394 45.936C5.042 45.9 5.468 45.876 5.672 45.864L5.834 46.08C5.798 46.188 5.714 46.458 5.582 46.89C5.45 47.31 5.3 47.838 5.132 48.474C4.964 49.11 4.832 49.74 4.736 50.364L4.79 50.418C5.402 49.194 6.014 48.174 6.626 47.358C7.238 46.542 7.82 45.972 8.372 45.648C8.756 45.648 9.08 45.816 9.344 46.152C9.62 46.476 9.758 46.866 9.758 47.322C9.758 47.574 9.656 48.078 9.452 48.834C9.248 49.59 9.104 50.1 9.02 50.364L9.074 50.418C9.662 49.254 10.28 48.258 10.928 47.43C11.588 46.59 12.212 45.996 12.8 45.648C13.184 45.648 13.502 45.81 13.754 46.134C14.006 46.446 14.132 46.842 14.132 47.322C14.132 47.67 14.054 48.108 13.898 48.636C13.742 49.164 13.514 49.848 13.214 50.688C12.842 51.768 12.614 52.488 12.53 52.848L12.584 52.92ZM17.8819 54.216C17.2819 54.216 16.7959 53.946 16.4239 53.406C16.0519 52.866 15.8659 52.152 15.8659 51.264C15.8659 50.292 16.0519 49.374 16.4239 48.51C16.8079 47.646 17.3119 46.956 17.9359 46.44C18.5719 45.912 19.2439 45.648 19.9519 45.648C20.5879 45.648 21.0859 45.888 21.4459 46.368C21.8179 46.836 22.0039 47.49 22.0039 48.33C22.0039 49.374 21.8179 50.346 21.4459 51.246C21.0739 52.146 20.5699 52.866 19.9339 53.406C19.2979 53.946 18.6139 54.216 17.8819 54.216ZM18.6019 53.226C18.9979 53.226 19.3519 53.058 19.6639 52.722C19.9759 52.386 20.2159 51.924 20.3839 51.336C20.5639 50.736 20.6539 50.064 20.6539 49.32C20.6539 48.516 20.5219 47.886 20.2579 47.43C20.0059 46.962 19.6519 46.728 19.1959 46.728C18.8119 46.728 18.4639 46.89 18.1519 47.214C17.8399 47.526 17.5939 47.958 17.4139 48.51C17.2459 49.062 17.1619 49.68 17.1619 50.364C17.1619 51.204 17.2939 51.894 17.5579 52.434C17.8339 52.962 18.1819 53.226 18.6019 53.226ZM28.5784 52.92C28.6624 52.92 28.7704 52.872 28.9024 52.776C29.0464 52.668 29.4124 52.362 30.0004 51.858L30.2164 51.876L30.4504 52.308C29.6944 53.016 29.1304 53.514 28.7584 53.802C28.3984 54.078 28.1224 54.216 27.9304 54.216C27.4984 54.216 27.2824 54.042 27.2824 53.694C27.2824 53.538 27.3904 52.968 27.6064 51.984C27.8224 50.988 27.9724 50.31 28.0564 49.95L27.9304 49.914C27.3424 50.994 26.7784 51.882 26.2384 52.578C25.6984 53.274 25.1464 53.82 24.5824 54.216C24.1264 54.216 23.7724 54.006 23.5204 53.586C23.2684 53.154 23.1424 52.548 23.1424 51.768C23.1424 50.808 23.3464 49.86 23.7544 48.924C24.1624 47.976 24.6844 47.208 25.3204 46.62C25.9564 46.02 26.6044 45.72 27.2644 45.72L28.5604 45.936L29.0284 42.39L29.0464 42.192C29.0464 41.988 28.9864 41.838 28.8664 41.742C28.7464 41.646 28.5544 41.598 28.2904 41.598H27.5524L27.6604 40.914C28.1164 40.914 28.6624 40.902 29.2984 40.878C29.9344 40.842 30.3544 40.818 30.5584 40.806L30.7204 41.022C30.6364 41.418 30.4504 42.312 30.1624 43.704C29.8864 45.084 29.5804 46.65 29.2444 48.402C28.9204 50.154 28.6804 51.636 28.5244 52.848L28.5784 52.92ZM24.9244 52.758C25.2604 52.758 25.7704 52.23 26.4544 51.174C27.1384 50.106 27.8104 48.804 28.4704 47.268C28.1824 47.1 27.8764 46.962 27.5524 46.854C27.2284 46.746 26.9464 46.692 26.7064 46.692C26.3224 46.692 25.9504 46.896 25.5904 47.304C25.2424 47.7 24.9544 48.222 24.7264 48.87C24.5104 49.518 24.4024 50.19 24.4024 50.886C24.4024 51.402 24.4504 51.846 24.5464 52.218C24.6544 52.578 24.7804 52.758 24.9244 52.758ZM37.0184 47.052C37.0184 47.808 36.6884 48.456 36.0284 48.996C35.3684 49.536 34.2704 50.064 32.7344 50.58C32.6864 51.348 32.7764 51.966 33.0044 52.434C33.2444 52.902 33.5744 53.136 33.9944 53.136C34.3544 53.136 34.7144 52.998 35.0744 52.722C35.4344 52.434 35.7344 52.056 35.9744 51.588L36.2264 51.606L36.4964 52.038C36.1484 52.674 35.7044 53.196 35.1644 53.604C34.6364 54.012 34.1144 54.216 33.5984 54.216C32.9504 54.216 32.4404 53.952 32.0684 53.424C31.6964 52.896 31.5104 52.17 31.5104 51.246C31.5104 50.346 31.7084 49.464 32.1044 48.6C32.5124 47.724 33.0284 47.016 33.6524 46.476C34.2884 45.924 34.9364 45.648 35.5964 45.648C36.0524 45.648 36.4004 45.774 36.6404 46.026C36.8924 46.266 37.0184 46.608 37.0184 47.052ZM35.0204 46.692C34.7084 46.692 34.3964 46.836 34.0844 47.124C33.7844 47.4 33.5144 47.778 33.2744 48.258C33.0464 48.738 32.8904 49.26 32.8064 49.824C33.8504 49.5 34.6004 49.158 35.0564 48.798C35.5124 48.438 35.7404 48.012 35.7404 47.52C35.7404 46.968 35.5004 46.692 35.0204 46.692ZM38.5192 54C38.6272 53.388 38.8192 52.218 39.0952 50.49C39.3712 48.762 39.5092 47.748 39.5092 47.448C39.5092 47.16 39.4492 46.956 39.3292 46.836C39.2212 46.716 39.0232 46.656 38.7352 46.656H37.9972L38.1232 45.972C38.5792 45.972 39.1252 45.96 39.7612 45.936C40.4092 45.9 40.8352 45.876 41.0392 45.864L41.2012 46.08C41.1652 46.176 41.0932 46.398 40.9852 46.746C40.8892 47.094 40.7632 47.562 40.6072 48.15C40.4512 48.726 40.3252 49.278 40.2292 49.806L40.3012 49.824C40.8172 48.66 41.3932 47.7 42.0292 46.944C42.6652 46.176 43.2232 45.768 43.7032 45.72C43.8112 45.792 43.9012 45.936 43.9732 46.152C44.0572 46.356 44.0992 46.572 44.0992 46.8C44.0992 47.004 44.0812 47.172 44.0452 47.304C44.0212 47.436 43.9912 47.532 43.9552 47.592C43.9192 47.64 43.8952 47.67 43.8832 47.682L43.7032 47.736C43.5832 47.616 43.4332 47.556 43.2532 47.556C42.7972 47.556 42.2752 47.934 41.6872 48.69C41.0992 49.434 40.5472 50.442 40.0312 51.714L39.7612 53.748C39.7492 53.808 39.5932 53.892 39.2932 54C39.0052 54.108 38.7892 54.162 38.6452 54.162L38.5192 54ZM51.8878 52.308C50.6158 53.58 49.7758 54.216 49.3678 54.216C48.9958 54.216 48.8098 54.042 48.8098 53.694C48.8098 53.454 48.8578 53.142 48.9538 52.758C49.0618 52.362 49.2298 51.786 49.4578 51.03C49.6978 50.274 49.8778 49.662 49.9978 49.194C50.1178 48.726 50.1778 48.348 50.1778 48.06C50.1778 47.844 50.1178 47.67 49.9978 47.538C49.8898 47.394 49.7458 47.322 49.5658 47.322C49.1938 47.322 48.6958 47.778 48.0718 48.69C47.4598 49.602 46.8418 50.79 46.2178 52.254L46.0198 53.748C46.0078 53.808 45.8518 53.892 45.5518 54C45.2638 54.108 45.0478 54.162 44.9038 54.162L44.7778 54C45.0178 52.632 45.2398 51.24 45.4438 49.824C45.6598 48.396 45.7678 47.58 45.7678 47.376C45.7678 47.124 45.7078 46.944 45.5878 46.836C45.4678 46.716 45.2698 46.656 44.9938 46.656H44.2558L44.3818 45.972C45.2098 45.972 46.1818 45.936 47.2978 45.864L47.4598 46.08C47.2438 46.692 47.0338 47.4 46.8298 48.204C46.6258 49.008 46.4698 49.728 46.3618 50.364L46.4518 50.418C47.0758 49.206 47.6998 48.192 48.3238 47.376C48.9598 46.548 49.5538 45.972 50.1058 45.648C50.4898 45.648 50.8138 45.816 51.0778 46.152C51.3418 46.476 51.4738 46.884 51.4738 47.376C51.4738 47.7 51.4018 48.126 51.2578 48.654C51.1138 49.17 50.9038 49.83 50.6278 50.634C50.2678 51.714 50.0458 52.452 49.9618 52.848L50.0158 52.92C50.0998 52.92 50.2198 52.866 50.3758 52.758C50.5318 52.638 50.8858 52.338 51.4378 51.858L51.6538 51.876L51.8878 52.308ZM66.1445 52.92C66.2285 52.92 66.3485 52.866 66.5045 52.758C66.6605 52.638 67.0205 52.338 67.5845 51.858L67.8005 51.876L68.0345 52.308C66.7145 53.58 65.8625 54.216 65.4785 54.216C65.1065 54.216 64.9205 54.042 64.9205 53.694C64.9205 53.466 64.9745 53.148 65.0825 52.74C65.2025 52.32 65.3825 51.75 65.6225 51.03C65.8865 50.238 66.0785 49.614 66.1985 49.158C66.3305 48.702 66.3965 48.336 66.3965 48.06C66.3965 47.844 66.3365 47.67 66.2165 47.538C66.1085 47.394 65.9645 47.322 65.7845 47.322C65.4005 47.322 64.8785 47.808 64.2185 48.78C63.5705 49.752 62.9165 51.018 62.2565 52.578L62.0405 53.748C62.0285 53.808 61.8725 53.892 61.5725 54C61.2845 54.108 61.0685 54.162 60.9245 54.162L60.7985 54C60.9305 53.448 61.1645 52.392 61.5005 50.832C61.8365 49.26 62.0045 48.336 62.0045 48.06C62.0045 47.844 61.9445 47.67 61.8245 47.538C61.7165 47.394 61.5725 47.322 61.3925 47.322C61.0325 47.322 60.5525 47.778 59.9525 48.69C59.3525 49.59 58.7525 50.766 58.1525 52.218L57.9545 53.748C57.9425 53.808 57.7865 53.892 57.4865 54C57.1985 54.108 56.9825 54.162 56.8385 54.162L56.7125 54C56.8205 53.364 57.0125 52.164 57.2885 50.4C57.5645 48.624 57.7025 47.616 57.7025 47.376C57.7025 47.124 57.6425 46.944 57.5225 46.836C57.4025 46.716 57.2045 46.656 56.9285 46.656H56.1905L56.3165 45.972C56.7725 45.972 57.3185 45.96 57.9545 45.936C58.6025 45.9 59.0285 45.876 59.2325 45.864L59.3945 46.08C59.3585 46.188 59.2745 46.458 59.1425 46.89C59.0105 47.31 58.8605 47.838 58.6925 48.474C58.5245 49.11 58.3925 49.74 58.2965 50.364L58.3505 50.418C58.9625 49.194 59.5745 48.174 60.1865 47.358C60.7985 46.542 61.3805 45.972 61.9325 45.648C62.3165 45.648 62.6405 45.816 62.9045 46.152C63.1805 46.476 63.3185 46.866 63.3185 47.322C63.3185 47.574 63.2165 48.078 63.0125 48.834C62.8085 49.59 62.6645 50.1 62.5805 50.364L62.6345 50.418C63.2225 49.254 63.8405 48.258 64.4885 47.43C65.1485 46.59 65.7725 45.996 66.3605 45.648C66.7445 45.648 67.0625 45.81 67.3145 46.134C67.5665 46.446 67.6925 46.842 67.6925 47.322C67.6925 47.67 67.6145 48.108 67.4585 48.636C67.3025 49.164 67.0745 49.848 66.7745 50.688C66.4025 51.768 66.1745 52.488 66.0905 52.848L66.1445 52.92ZM74.9345 47.052C74.9345 47.808 74.6045 48.456 73.9445 48.996C73.2845 49.536 72.1865 50.064 70.6505 50.58C70.6025 51.348 70.6925 51.966 70.9205 52.434C71.1605 52.902 71.4905 53.136 71.9105 53.136C72.2705 53.136 72.6305 52.998 72.9905 52.722C73.3505 52.434 73.6505 52.056 73.8905 51.588L74.1425 51.606L74.4125 52.038C74.0645 52.674 73.6205 53.196 73.0805 53.604C72.5525 54.012 72.0305 54.216 71.5145 54.216C70.8665 54.216 70.3565 53.952 69.9845 53.424C69.6125 52.896 69.4265 52.17 69.4265 51.246C69.4265 50.346 69.6245 49.464 70.0205 48.6C70.4285 47.724 70.9445 47.016 71.5685 46.476C72.2045 45.924 72.8525 45.648 73.5125 45.648C73.9685 45.648 74.3165 45.774 74.5565 46.026C74.8085 46.266 74.9345 46.608 74.9345 47.052ZM72.9365 46.692C72.6245 46.692 72.3125 46.836 72.0005 47.124C71.7005 47.4 71.4305 47.778 71.1905 48.258C70.9625 48.738 70.8065 49.26 70.7225 49.824C71.7665 49.5 72.5165 49.158 72.9725 48.798C73.4285 48.438 73.6565 48.012 73.6565 47.52C73.6565 46.968 73.4165 46.692 72.9365 46.692ZM80.0892 52.128C79.5372 52.74 79.0152 53.244 78.5232 53.64C78.0312 54.024 77.6472 54.216 77.3712 54.216C77.0472 54.216 76.7892 54.126 76.5972 53.946C76.4052 53.766 76.3092 53.52 76.3092 53.208L76.3272 53.01L77.3172 46.836L77.2272 46.764L75.9852 46.71L75.9312 46.62L76.0032 46.098L77.4432 45.864L77.7312 43.704L79.3512 43.074L79.4592 43.29C79.4112 43.434 79.3092 43.764 79.1532 44.28C79.0092 44.784 78.8712 45.33 78.7392 45.918L80.9352 45.9L81.0072 45.954L80.8632 46.674L78.7392 46.656L78.5412 46.764L77.4432 52.29L77.4252 52.452C77.4252 52.764 77.5692 52.92 77.8572 52.92C78.0252 52.92 78.2412 52.83 78.5052 52.65C78.7812 52.458 79.1592 52.134 79.6392 51.678L79.8732 51.696L80.0892 52.128ZM86.2522 52.92C86.3362 52.92 86.4562 52.866 86.6122 52.758C86.7682 52.638 87.1222 52.338 87.6742 51.858L87.8902 51.876L88.1242 52.308C87.3202 53.064 86.7442 53.574 86.3962 53.838C86.0482 54.09 85.7602 54.216 85.5322 54.216C85.3642 54.216 85.2262 54.168 85.1182 54.072C85.0102 53.988 84.9562 53.874 84.9562 53.73C84.9562 53.466 85.2142 52.206 85.7302 49.95L85.6222 49.914C85.0342 50.994 84.4702 51.882 83.9302 52.578C83.3902 53.262 82.8322 53.808 82.2562 54.216C81.8002 54.216 81.4462 54.006 81.1942 53.586C80.9422 53.154 80.8162 52.56 80.8162 51.804C80.8162 50.832 81.0142 49.872 81.4102 48.924C81.8182 47.976 82.3402 47.208 82.9762 46.62C83.6242 46.02 84.2782 45.72 84.9382 45.72L86.7382 46.008L86.9002 45.558L86.9902 45.54L87.5482 45.81L87.6922 46.026C87.4042 46.986 87.1162 48.114 86.8282 49.41C86.5522 50.694 86.3422 51.84 86.1982 52.848L86.2522 52.92ZM82.6342 52.758C82.8382 52.758 83.1382 52.506 83.5342 52.002C83.9422 51.498 84.3802 50.826 84.8482 49.986C85.3282 49.146 85.7782 48.246 86.1982 47.286C85.9222 47.118 85.6162 46.98 85.2802 46.872C84.9442 46.752 84.6622 46.692 84.4342 46.692C84.0262 46.692 83.6422 46.89 83.2822 47.286C82.9222 47.682 82.6282 48.21 82.4002 48.87C82.1842 49.518 82.0762 50.202 82.0762 50.922C82.0762 51.45 82.1302 51.888 82.2382 52.236C82.3462 52.584 82.4782 52.758 82.6342 52.758ZM90.7151 52.92C90.7991 52.92 90.9251 52.86 91.0931 52.74C91.2731 52.608 91.6211 52.314 92.1371 51.858L92.3531 51.876L92.5871 52.308C91.3151 53.58 90.4751 54.216 90.0671 54.216C89.6951 54.216 89.5091 54.042 89.5091 53.694C89.5091 53.646 89.5751 53.19 89.7071 52.326C89.8391 51.462 89.9651 50.634 90.0851 49.842C90.8291 45.222 91.2011 42.714 91.2011 42.318C91.2011 42.066 91.1411 41.886 91.0211 41.778C90.9011 41.658 90.7091 41.598 90.4451 41.598H89.7071L89.8151 40.914C90.2711 40.914 90.8171 40.902 91.4531 40.878C92.0891 40.842 92.5091 40.818 92.7131 40.806L92.8751 41.022C92.7911 41.394 92.6111 42.24 92.3351 43.56C92.0591 44.868 91.7531 46.398 91.4171 48.15C91.0931 49.902 90.8411 51.468 90.6611 52.848L90.7151 52.92ZM102.09 52.92C102.174 52.92 102.294 52.866 102.45 52.758C102.606 52.638 102.96 52.338 103.512 51.858L103.728 51.876L103.962 52.308C103.158 53.064 102.582 53.574 102.234 53.838C101.886 54.09 101.598 54.216 101.37 54.216C101.202 54.216 101.064 54.168 100.956 54.072C100.848 53.988 100.794 53.874 100.794 53.73C100.794 53.466 101.052 52.206 101.568 49.95L101.46 49.914C100.872 50.994 100.308 51.882 99.7681 52.578C99.2281 53.262 98.6701 53.808 98.0941 54.216C97.6381 54.216 97.2841 54.006 97.0321 53.586C96.7801 53.154 96.6541 52.56 96.6541 51.804C96.6541 50.832 96.8521 49.872 97.2481 48.924C97.6561 47.976 98.1781 47.208 98.8141 46.62C99.4621 46.02 100.116 45.72 100.776 45.72L102.576 46.008L102.738 45.558L102.828 45.54L103.386 45.81L103.53 46.026C103.242 46.986 102.954 48.114 102.666 49.41C102.39 50.694 102.18 51.84 102.036 52.848L102.09 52.92ZM98.4721 52.758C98.6761 52.758 98.9761 52.506 99.3721 52.002C99.7801 51.498 100.218 50.826 100.686 49.986C101.166 49.146 101.616 48.246 102.036 47.286C101.76 47.118 101.454 46.98 101.118 46.872C100.782 46.752 100.5 46.692 100.272 46.692C99.8641 46.692 99.4801 46.89 99.1201 47.286C98.7601 47.682 98.4661 48.21 98.2381 48.87C98.0221 49.518 97.9141 50.202 97.9141 50.922C97.9141 51.45 97.9681 51.888 98.0761 52.236C98.1841 52.584 98.3161 52.758 98.4721 52.758ZM105.527 54C105.635 53.388 105.827 52.218 106.103 50.49C106.379 48.762 106.517 47.748 106.517 47.448C106.517 47.16 106.457 46.956 106.337 46.836C106.229 46.716 106.031 46.656 105.743 46.656H105.005L105.131 45.972C105.587 45.972 106.133 45.96 106.769 45.936C107.417 45.9 107.843 45.876 108.047 45.864L108.209 46.08C108.173 46.176 108.101 46.398 107.993 46.746C107.897 47.094 107.771 47.562 107.615 48.15C107.459 48.726 107.333 49.278 107.237 49.806L107.309 49.824C107.825 48.66 108.401 47.7 109.037 46.944C109.673 46.176 110.231 45.768 110.711 45.72C110.819 45.792 110.909 45.936 110.981 46.152C111.065 46.356 111.107 46.572 111.107 46.8C111.107 47.004 111.089 47.172 111.053 47.304C111.029 47.436 110.999 47.532 110.963 47.592C110.927 47.64 110.903 47.67 110.891 47.682L110.711 47.736C110.591 47.616 110.441 47.556 110.261 47.556C109.805 47.556 109.283 47.934 108.695 48.69C108.107 49.434 107.555 50.442 107.039 51.714L106.769 53.748C106.757 53.808 106.601 53.892 106.301 54C106.013 54.108 105.797 54.162 105.653 54.162L105.527 54ZM115.404 52.128C114.852 52.74 114.33 53.244 113.838 53.64C113.346 54.024 112.962 54.216 112.686 54.216C112.362 54.216 112.104 54.126 111.912 53.946C111.72 53.766 111.624 53.52 111.624 53.208L111.642 53.01L112.632 46.836L112.542 46.764L111.3 46.71L111.246 46.62L111.318 46.098L112.758 45.864L113.046 43.704L114.666 43.074L114.774 43.29C114.726 43.434 114.624 43.764 114.468 44.28C114.324 44.784 114.186 45.33 114.054 45.918L116.25 45.9L116.322 45.954L116.178 46.674L114.054 46.656L113.856 46.764L112.758 52.29L112.74 52.452C112.74 52.764 112.884 52.92 113.172 52.92C113.34 52.92 113.556 52.83 113.82 52.65C114.096 52.458 114.474 52.134 114.954 51.678L115.188 51.696L115.404 52.128Z" fill="white"/>
</svg>
